<svg width="152" height="148" viewBox="0 0 152 148" fill="none" xmlns="http://www.w3.org/2000/svg">
<rect width="151.106" height="147.671" fill="white"/>
<rect x="61.35" y="35.833" width="28.2319" height="46.9627" rx="4.07191" fill="#BCBCBC"/>
<path d="M59.7254 37.9753L71.7927 56.7142C71.8109 56.7425 71.8291 56.7707 71.8472 56.7989C72.3138 57.5236 72.7505 58.202 73.1738 58.6854C73.631 59.2073 74.3203 59.7933 75.3303 59.7933C76.3403 59.7933 77.0296 59.2073 77.4867 58.6854C77.9101 58.202 78.3468 57.5236 78.8134 56.7988C78.8315 56.7707 78.8496 56.7424 78.8678 56.7142L90.9351 37.9753C90.9545 37.9451 90.9739 37.9151 90.9932 37.8851C91.5376 37.0399 92.0343 36.2689 92.3294 35.6171C92.637 34.9377 92.9257 33.9602 92.3883 32.975C91.8509 31.9898 90.8728 31.7033 90.135 31.5941C89.4273 31.4893 88.5102 31.4894 87.5047 31.4895L87.3975 31.4895L63.263 31.4895L63.1558 31.4895C62.1504 31.4894 61.2332 31.4893 60.5255 31.5941C59.7878 31.7033 58.8097 31.9898 58.2723 32.975C57.7349 33.9602 58.0236 34.9377 58.3312 35.6171C58.6263 36.2689 59.1229 37.0399 59.6674 37.8852L59.7254 37.9753Z" fill="#041860" stroke="white" stroke-width="2.98606"/>
<rect x="39.6332" y="32.8469" width="19.0022" height="49.9487" rx="6.24359" fill="#041860"/>
<rect x="92.025" y="32.8469" width="19.0022" height="49.9487" rx="6.24359" fill="#041860"/>
<path d="M51.4249 98.8222L53.2572 86.6797H56.9952V103.782H54.4544V91.5172L52.5976 103.782H50.0567L48.0533 91.6882V103.782H45.7079V86.6797H49.4459L51.4249 98.8222ZM61.4666 98.1136L58.0706 86.6797H60.8802L62.9325 94.4734L64.9847 86.6797H67.55L64.154 98.1136V103.782H61.4666V98.1136ZM72.6924 86.6797C74.0932 86.6797 75.103 87.0055 75.7219 87.657C76.3572 88.3085 76.6748 89.2939 76.6748 90.6132V91.224C76.6748 92.1035 76.5363 92.8283 76.2594 93.3984C75.9825 93.9684 75.5428 94.3919 74.9401 94.6688C75.6731 94.9457 76.1861 95.4018 76.4793 96.037C76.7888 96.6559 76.9435 97.4214 76.9435 98.3335V99.7261C76.9435 101.045 76.6015 102.055 75.9174 102.756C75.2333 103.44 74.2153 103.782 72.8635 103.782H68.6368V86.6797H72.6924ZM71.3243 96.0858V101.339H72.8635C73.3195 101.339 73.6616 101.216 73.8896 100.972C74.1339 100.728 74.2561 100.288 74.2561 99.6528V98.1625C74.2561 97.3644 74.1176 96.8188 73.8407 96.5256C73.5801 96.2324 73.1404 96.0858 72.5214 96.0858H71.3243ZM71.3243 89.1229V93.6427H72.3748C72.8798 93.6427 73.2707 93.5124 73.5475 93.2518C73.8407 92.9912 73.9873 92.5188 73.9873 91.8348V90.8819C73.9873 90.263 73.8733 89.8151 73.6453 89.5382C73.4335 89.2613 73.0915 89.1229 72.6192 89.1229H71.3243ZM78.5621 86.6797H81.2496V101.339H85.6716V103.782H78.5621V86.6797ZM89.3564 99.8483C89.3564 100.467 89.4786 100.907 89.7229 101.168C89.9835 101.412 90.3255 101.534 90.749 101.534C91.1725 101.534 91.5064 101.412 91.7507 101.168C92.0113 100.907 92.1416 100.467 92.1416 99.8483V90.6132C92.1416 89.9943 92.0113 89.5626 91.7507 89.3183C91.5064 89.0577 91.1725 88.9274 90.749 88.9274C90.3255 88.9274 89.9835 89.0577 89.7229 89.3183C89.4786 89.5626 89.3564 89.9943 89.3564 90.6132V99.8483ZM86.6689 90.7842C86.6689 89.3998 87.0191 88.3411 87.7195 87.6081C88.4199 86.8589 89.4297 86.4843 90.749 86.4843C92.0683 86.4843 93.0781 86.8589 93.7785 87.6081C94.4789 88.3411 94.829 89.3998 94.829 90.7842V99.6773C94.829 101.062 94.4789 102.129 93.7785 102.878C93.0781 103.611 92.0683 103.977 90.749 103.977C89.4297 103.977 88.4199 103.611 87.7195 102.878C87.0191 102.129 86.6689 101.062 86.6689 99.6773V90.7842ZM100.607 94.2535H104.369V99.6773C104.369 101.062 104.027 102.129 103.343 102.878C102.675 103.611 101.682 103.977 100.362 103.977C99.0431 103.977 98.0414 103.611 97.3573 102.878C96.6895 102.129 96.3556 101.062 96.3556 99.6773V90.7842C96.3556 89.3998 96.6895 88.3411 97.3573 87.6081C98.0414 86.8589 99.0431 86.4843 100.362 86.4843C101.682 86.4843 102.675 86.8589 103.343 87.6081C104.027 88.3411 104.369 89.3998 104.369 90.7842V92.4456H101.828V90.6132C101.828 89.9943 101.698 89.5626 101.437 89.3183C101.193 89.0577 100.859 88.9274 100.436 88.9274C100.012 88.9274 99.6702 89.0577 99.4096 89.3183C99.1652 89.5626 99.0431 89.9943 99.0431 90.6132V99.8483C99.0431 100.467 99.1652 100.899 99.4096 101.143C99.6702 101.387 100.012 101.51 100.436 101.51C100.859 101.51 101.193 101.387 101.437 101.143C101.698 100.899 101.828 100.467 101.828 99.8483V96.6966H100.607V94.2535Z" fill="black"/>
</svg>
